# Blender v2.63 (sub 0) OBJ File: ''
# www.blender.org
mtllib cone.mtl
o Cone
v 0.000000 -1.000000 -1.000000
v 0.000000 1.000000 0.000000
v 0.195090 -1.000000 -0.980785
v 0.382683 -1.000000 -0.923880
v 0.555570 -1.000000 -0.831470
v 0.707107 -1.000000 -0.707107
v 0.831470 -1.000000 -0.555570
v 0.923880 -1.000000 -0.382683
v 0.980785 -1.000000 -0.195090
v 1.000000 -1.000000 -0.000000
v 0.980785 -1.000000 0.195090
v 0.923880 -1.000000 0.382683
v 0.831470 -1.000000 0.555570
v 0.707107 -1.000000 0.707107
v 0.555570 -1.000000 0.831470
v 0.382683 -1.000000 0.923880
v 0.195090 -1.000000 0.980785
v -0.000000 -1.000000 1.000000
v -0.195091 -1.000000 0.980785
v -0.382684 -1.000000 0.923879
v -0.555571 -1.000000 0.831469
v -0.707107 -1.000000 0.707106
v -0.831470 -1.000000 0.555570
v -0.923880 -1.000000 0.382683
v -0.980785 -1.000000 0.195089
v -1.000000 -1.000000 -0.000001
v -0.980785 -1.000000 -0.195091
v -0.923879 -1.000000 -0.382684
v -0.831469 -1.000000 -0.555571
v -0.707106 -1.000000 -0.707108
v -0.555569 -1.000000 -0.831470
v -0.382682 -1.000000 -0.923880
v -0.195089 -1.000000 -0.980786
vt 1.000000 0.566991
vt 0.733236 0.975778
vt 0.968869 0.545918
vt 0.932915 0.527099
vt 0.893520 0.511256
vt 0.852198 0.498997
vt 0.467196 0.561748
vt 0.732550 0.973925
vt 0.437628 0.584963
vt 0.501733 0.540441
vt 0.539914 0.521859
vt 0.580269 0.506717
vt 0.621249 0.495598
vt 0.661278 0.488927
vt 0.698819 0.486962
vt 0.732429 0.489779
vt 0.732550 0.388962
vt 0.437628 0.000000
vt 0.756012 0.364732
vt 0.702982 0.412177
vt 0.668445 0.433484
vt 0.630264 0.452066
vt 0.589909 0.467207
vt 0.548929 0.478327
vt 0.508900 0.484998
vt 0.471359 0.486962
vt 0.437749 0.484146
vt 0.176437 0.437628
vt 0.142707 0.924591
vt 0.142828 0.440444
vt 0.213978 0.439593
vt 0.254008 0.446264
vt 0.294987 0.457383
vt 0.335343 0.472525
vt 0.373523 0.491107
vt 0.408061 0.512414
vt 0.437628 0.535629
vt 0.770136 0.486962
vt 0.732550 0.487649
vt 0.810536 0.490794
vt 0.024901 0.115173
vt 0.048846 0.079334
vt 0.008408 0.154995
vt 0.000000 0.197270
vt 0.079323 0.048855
vt 0.000001 0.240372
vt 0.115161 0.024907
vt 0.008411 0.282646
vt 0.154982 0.008412
vt 0.024907 0.322467
vt 0.197256 0.000001
vt 0.048855 0.358305
vt 0.240358 0.000000
vt 0.079334 0.388782
vt 0.282633 0.008408
vt 0.115173 0.412727
vt 0.322455 0.024901
vt 0.154995 0.429221
vt 0.358294 0.048846
vt 0.197270 0.437628
vt 0.388773 0.079323
vt 0.240372 0.437627
vt 0.412721 0.115161
vt 0.282646 0.429217
vt 0.429217 0.154982
vt 0.322467 0.412721
vt 0.437627 0.197256
vt 0.358305 0.388773
vt 0.437628 0.240359
vt 0.388782 0.358294
vt 0.429221 0.282633
vt 0.412727 0.322455
vn -0.259887 0.445488 -0.856737
vn 0.087754 0.445488 -0.890977
vn -0.087753 0.445488 -0.890977
vn 0.259888 0.445488 -0.856737
vn -0.422035 0.445488 -0.789574
vn -0.567964 0.445488 -0.692068
vn -0.692066 0.445488 -0.567965
vn -0.789573 0.445488 -0.422037
vn -0.856737 0.445488 -0.259889
vn -0.890977 0.445488 -0.087754
vn -0.890977 0.445488 0.087753
vn -0.856737 0.445488 0.259887
vn -0.789574 0.445488 0.422035
vn -0.692067 0.445488 0.567964
vn -0.567965 0.445488 0.692066
vn -0.422036 0.445488 0.789573
vn -0.259888 0.445488 0.856737
vn -0.087754 0.445488 0.890977
vn 0.087753 0.445488 0.890977
vn 0.259888 0.445488 0.856737
vn 0.422035 0.445488 0.789573
vn 0.567965 0.445488 0.692067
vn 0.692067 0.445488 0.567965
vn 0.789573 0.445488 0.422035
vn 0.856737 0.445488 0.259888
vn 0.890977 0.445488 0.087753
vn 0.890977 0.445488 -0.087754
vn 0.856737 0.445488 -0.259888
vn 0.789573 0.445488 -0.422036
vn 0.692067 0.445488 -0.567964
vn 0.567964 0.445488 -0.692067
vn 0.422036 0.445488 -0.789573
vn 0.000000 -1.000000 -0.000000
usemtl Orange_ConeTex
s off
f 32/1/1 2/2/1 33/3/1
f 1/4/2 2/2/2 3/5/2
f 2/2/3 1/4/3 33/3/3
f 3/5/4 2/2/4 4/6/4
f 31/7/5 2/8/5 32/9/5
f 30/10/6 2/8/6 31/7/6
f 29/11/7 2/8/7 30/10/7
f 28/12/8 2/8/8 29/11/8
f 27/13/9 2/8/9 28/12/9
f 26/14/10 2/8/10 27/13/10
f 25/15/11 2/8/11 26/14/11
f 24/16/12 2/8/12 25/15/12
f 23/17/13 2/18/13 24/19/13
f 22/20/14 2/18/14 23/17/14
f 21/21/15 2/18/15 22/20/15
f 20/22/16 2/18/16 21/21/16
f 19/23/17 2/18/17 20/22/17
f 18/24/18 2/18/18 19/23/18
f 17/25/19 2/18/19 18/24/19
f 16/26/20 2/18/20 17/25/20
f 15/27/21 2/18/21 16/26/21
f 14/28/22 2/29/22 15/30/22
f 13/31/23 2/29/23 14/28/23
f 12/32/24 2/29/24 13/31/24
f 11/33/25 2/29/25 12/32/25
f 10/34/26 2/29/26 11/33/26
f 9/35/27 2/29/27 10/34/27
f 8/36/28 2/29/28 9/35/28
f 7/37/29 2/29/29 8/36/29
f 6/38/30 2/2/30 7/39/30
f 5/40/31 2/2/31 6/38/31
f 4/6/32 2/2/32 5/40/32
f 1/41/33 3/42/33 33/43/33
f 3/42/33 32/44/33 33/43/33
f 3/42/33 4/45/33 32/44/33
f 4/45/33 31/46/33 32/44/33
f 4/45/33 5/47/33 31/46/33
f 5/47/33 30/48/33 31/46/33
f 5/47/33 6/49/33 30/48/33
f 6/49/33 29/50/33 30/48/33
f 6/49/33 7/51/33 29/50/33
f 7/51/33 28/52/33 29/50/33
f 7/51/33 8/53/33 28/52/33
f 8/53/33 27/54/33 28/52/33
f 8/53/33 9/55/33 27/54/33
f 9/55/33 26/56/33 27/54/33
f 9/55/33 10/57/33 26/56/33
f 10/57/33 25/58/33 26/56/33
f 10/57/33 11/59/33 25/58/33
f 11/59/33 24/60/33 25/58/33
f 11/59/33 12/61/33 24/60/33
f 12/61/33 23/62/33 24/60/33
f 12/61/33 13/63/33 23/62/33
f 13/63/33 22/64/33 23/62/33
f 13/63/33 14/65/33 22/64/33
f 14/65/33 21/66/33 22/64/33
f 14/65/33 15/67/33 21/66/33
f 15/67/33 20/68/33 21/66/33
f 15/67/33 16/69/33 20/68/33
f 16/69/33 19/70/33 20/68/33
f 16/69/33 17/71/33 19/70/33
f 17/71/33 18/72/33 19/70/33
